<?xml version="1.0" encoding="utf-8"?>
<!-- Generator: Adobe Illustrator 19.0.0, SVG Export Plug-In . SVG Version: 6.00 Build 0)  -->
<svg version="1.1" id="layer" xmlns="http://www.w3.org/2000/svg" xmlns:xlink="http://www.w3.org/1999/xlink" x="0px" y="0px"
	 viewBox="-153 -46 652 652" style="enable-background:new -153 -46 652 652;" xml:space="preserve">
<style type="text/css">
	.st0{fill:#FDCD00;}
	.st1{fill:#003963;}
</style>
<path class="st0" d="M-109.9,228.2c-2.2-2.9-5.7-4.8-9.6-4.8c-4.9,0-9.1,2.9-11,7.1c0,0.1-0.1,0.2-0.1,0.3c-0.6,1.4-0.9,3-0.9,4.6
	c0,4,1.9,7.5,4.9,9.7c2,1.5,4.5,2.4,7.1,2.4c3.7,0,7-1.7,9.2-4.3c0.5-0.6,0.9-1.3,1.4-2c0.9-1.7,1.5-3.7,1.5-5.8
	C-107.5,232.7-108.4,230.2-109.9,228.2"/>
<path class="st1" d="M-59.9,207.2c0,0,6.9,4,10.5,10.4c3.9,6.8,3.9,17.6,3.9,17.6c0,5.5-1.1,10.9-3.4,15.6
	c-4.8,9.9-12.5,14.4-20.8,16.6c-4.1,1.1-8.3,1.5-12.3,1.8c-2.6,0.2-5.2,0.2-7.7,0.3h-7.8c-3.3,0-6.3,1-8.9,2.8
	c-4,2.8-6.6,7.4-6.7,12.6v0.4v22.1v6.2c-3.2-1.6-6.2-3.7-8.7-6.2c-6-6-9.7-14.3-9.7-23.4c0-15.2,10.2-27.9,24.1-31.9
	c2.6-0.7,5.4-1.2,8.3-1.2c0.2,0,0.4,0,0.7,0c0.2,0,0.4,0,0.7,0h6.5c9.4,0,20.8-0.3,20.8-15.8c0-12.2-8.7-14.2-15.9-14.6
	c0,0-0.1,0-0.1,0c-0.7,0-1.3,0-2-0.1c-5.9-0.4-11.4-2.3-16.1-5.3c-5-3.3-9-7.8-11.6-13.2h25.1c3.8,0,7.4,0,11,0.2
	c0,0,8.6,0.4,12.9,1.7C-63,205.1-59.9,207.2-59.9,207.2 M39.8,331.9c1.3-1.8,1.4-3.7,1.4-4.5c0-2.2-0.8-3.9-1.2-4.6
	c-0.4-0.6-0.8-0.9-1-1.1c-1.7-1.5-3.8-1.8-5.9-1.8H21.7v22.6h5.7v-7.4h3.8C34.5,335.1,37.7,334.9,39.8,331.9 M34.9,325.4
	c0.3,0.4,0.6,1,0.6,2c0,1.9-0.8,3.1-2.8,3.5c-0.5,0.1-0.9,0.1-1.9,0.1h-3.4v-6.9H31C32.4,324.1,34,324.1,34.9,325.4 M59,335.2
	c0-0.8,0-4.3-1.9-6.9c-2.1-2.9-5.4-3-6.5-3c-3.6,0-5.4,1.5-6.4,2.7c-2.1,2.4-2.2,5.5-2.2,6.5c0,3.8,1.7,7.1,5.4,8.2
	c1.3,0.4,2.5,0.4,3,0.4c1.2,0,4.4-0.2,6.9-2.9c0.4-0.4,0.7-0.9,1.4-1.9l-3.7-1.9c-0.2,0.4-1,2.1-2.6,2.7c-0.7,0.3-1.3,0.3-1.6,0.3
	c-2,0-3.4-1.2-3.7-3.2c-0.1-0.4-0.1-0.8-0.1-1H59z M52.1,329.2c1.7,0.7,1.8,2.4,1.8,3h-6.8c0.1-0.7,0.3-1,0.4-1.3
	c0.3-0.6,1.2-2,3.1-2C50.9,328.8,51.4,328.8,52.1,329.2 M75.7,341.1c1.1-1,2.9-3.1,2.9-6.9c0-2.7-1-5.4-3.1-7.1
	c-1.6-1.2-3.3-1.7-5.3-1.8c-4.2-0.3-6.5,1.5-7.7,2.8c-1.9,2.3-1.9,5-1.9,6c0,3.5,1.4,5.5,2.4,6.5c2.3,2.2,5.7,2.4,6.6,2.4
	C72.8,343.1,74.8,341.9,75.7,341.1 M71.9,329.9c1,0.7,1.8,2,1.8,4.5c0,2.5-1.2,4.8-3.9,4.8c-1.9,0-2.8-1-3.2-1.6
	c-0.3-0.5-0.9-1.7-0.9-3.4c0-2.5,1.1-3.9,2-4.4c0.7-0.4,1.6-0.5,1.9-0.5C70.8,329.2,71.5,329.6,71.9,329.9 M96.6,339.9
	c0.6-1,1.5-2.8,1.5-5.7c0-2.3-0.5-4.8-2.2-6.6c-1.8-2-4.1-2.1-5-2.1c-2,0-3.4,0.8-4,1.3c-0.3,0.3-0.4,0.4-0.7,0.7l0-1.6h-4.4v22.5h5
	v-6.9c1.5,0.9,2.4,1.4,4.1,1.4c1.6,0,2.6-0.4,3.1-0.6C94.5,342,95.7,341.3,96.6,339.9 M92.2,330c1.2,1.4,1.2,3.6,1.2,4.1
	c0,1.8-0.4,2.8-0.8,3.5c-0.3,0.5-1,1.7-2.7,1.7c-0.8,0-1.3-0.3-1.6-0.5c-0.4-0.2-0.7-0.5-1-0.9c-0.9-1.4-0.9-3.4-0.9-3.7
	c0-3.6,1.7-5.3,3.5-5.3c0.1,0,0.4,0,0.7,0.1C91.3,329.2,91.9,329.6,92.2,330 M101.3,342.5h4.9v-22.6h-4.9V342.5z M126.4,335.2
	c0-0.8,0-4.3-1.9-6.9c-2.1-2.9-5.4-3-6.5-3c-3.6,0-5.4,1.5-6.4,2.7c-2.1,2.4-2.1,5.5-2.1,6.5c0,3.8,1.7,7.1,5.4,8.2
	c1.3,0.4,2.5,0.4,3,0.4c1.3,0,4.4-0.2,6.9-2.9c0.4-0.4,0.7-0.9,1.4-1.9l-3.7-1.9c-0.2,0.4-1,2.1-2.6,2.7c-0.7,0.3-1.3,0.3-1.6,0.3
	c-2,0-3.4-1.2-3.8-3.2c-0.1-0.4-0.1-0.8-0.1-1H126.4z M119.5,329.2c1.7,0.7,1.8,2.4,1.8,3h-6.8c0.1-0.7,0.2-1,0.4-1.3
	c0.2-0.6,1.2-2,3.1-2C118.3,328.8,118.8,328.8,119.5,329.2 M156.6,331.9c1.3-1.8,1.4-3.7,1.4-4.5c0-2.2-0.8-3.9-1.3-4.6
	c-0.4-0.6-0.8-0.9-1-1.1c-1.7-1.5-3.7-1.8-5.9-1.8h-11.2v22.6h5.7v-7.4h3.8C151.3,335.1,154.5,334.9,156.6,331.9 M151.7,325.4
	c0.3,0.4,0.6,1,0.6,2c0,1.9-0.8,3.1-2.8,3.5c-0.5,0.1-0.9,0.1-1.9,0.1h-3.4v-6.9h3.6C149.2,324.1,150.8,324.1,151.7,325.4
	 M173.9,341.1c1.2-1,2.9-3.1,2.9-6.9c0-2.7-1-5.4-3.1-7.1c-1.6-1.2-3.3-1.7-5.3-1.8c-4.2-0.3-6.5,1.5-7.7,2.8c-1.9,2.3-2,5-2,6
	c0,3.5,1.4,5.5,2.4,6.5c2.3,2.2,5.7,2.4,6.6,2.4C171,343.1,172.9,341.9,173.9,341.1 M170.1,329.9c1,0.7,1.8,2,1.8,4.5
	c0,2.5-1.2,4.8-3.9,4.8c-1.9,0-2.8-1-3.2-1.6c-0.3-0.5-0.9-1.7-0.9-3.4c0-2.5,1.1-3.9,2-4.4c0.7-0.4,1.6-0.5,1.9-0.5
	C169,329.2,169.6,329.6,170.1,329.9 M203.2,325.8h-5.1l-2.6,11.8l-2.3-11.8h-5.2l-2.5,11.7l-2.3-11.7h-5.2l4.6,16.7h5.4l2.5-11.1
	l2.5,11.1h5.4L203.2,325.8z M221.2,335.2c0-0.8,0-4.3-1.9-6.9c-2.1-2.9-5.4-3-6.5-3c-3.7,0-5.4,1.5-6.4,2.7
	c-2.1,2.4-2.1,5.5-2.1,6.5c0,3.8,1.7,7.1,5.4,8.2c1.3,0.4,2.5,0.4,3,0.4c1.3,0,4.5-0.2,6.9-2.9c0.4-0.4,0.7-0.9,1.4-1.9l-3.7-1.9
	c-0.2,0.4-1,2.1-2.6,2.7c-0.7,0.3-1.3,0.3-1.6,0.3c-2,0-3.4-1.2-3.7-3.2c-0.1-0.4-0.1-0.8-0.1-1H221.2z M214.3,329.2
	c1.7,0.7,1.8,2.4,1.8,3h-6.8c0.1-0.7,0.3-1,0.4-1.3c0.3-0.6,1.2-2,3.1-2C213.1,328.8,213.6,328.8,214.3,329.2 M233.7,330v-4.4
	c-0.6,0.1-1.5,0.1-2.9,0.7c-1.1,0.4-1.5,0.9-2,1.2v-1.7H224v16.7h4.9v-9.4c0-1.3,0.2-2.1,1.5-2.5c0.6-0.2,1.4-0.3,1.5-0.4L233.7,330
	z M251.9,335.2c0-0.8,0-4.3-1.9-6.9c-2.1-2.9-5.4-3-6.5-3c-3.7,0-5.4,1.5-6.4,2.7c-2.1,2.4-2.2,5.5-2.2,6.5c0,3.8,1.7,7.1,5.4,8.2
	c1.3,0.4,2.5,0.4,3,0.4c1.2,0,4.4-0.2,6.9-2.9c0.4-0.4,0.7-0.9,1.4-1.9l-3.7-1.9c-0.2,0.4-1,2.1-2.6,2.7c-0.7,0.3-1.3,0.3-1.6,0.3
	c-2,0-3.4-1.2-3.7-3.2c-0.1-0.4-0.1-0.8-0.1-1H251.9z M245,329.2c1.7,0.7,1.8,2.4,1.8,3H240c0.1-0.7,0.2-1,0.4-1.3
	c0.2-0.6,1.1-2,3.1-2C243.8,328.8,244.3,328.8,245,329.2 M269.7,342.5v-22.6h-4.8v7.1c-0.6-0.5-2.1-1.7-4.4-1.7
	c-2,0-3.2,0.8-3.8,1.2c-3.2,2.3-3.2,6.7-3.2,7.7c0,3,0.8,4.6,1.6,5.8c1.8,2.6,4.4,2.9,5.6,2.9c0.7,0,2.1-0.1,3.6-1.1
	c0.4-0.3,0.6-0.6,1-0.9l0,1.6H269.7z M264.2,330.3c0.9,1.4,0.8,3.4,0.8,3.9c0,0.4,0.1,3.2-1.6,4.5c-0.5,0.4-1.1,0.6-1.7,0.6
	c-0.5,0-1.5-0.1-2.2-1.2c-1-1.4-0.9-3.6-0.9-3.9c0-1.2,0.2-2.7,0.9-3.7c0.5-0.8,1.2-1.3,2.2-1.4
	C263.1,328.9,263.9,329.9,264.2,330.3 M301,340.9c2.8-2.3,4.3-6,4.3-9.4c0-3.1-1.2-6.8-3.4-9c-1.2-1.2-3.8-3.1-8.1-3.1
	c-5.3,0-7.9,2.9-9,4.6c-2,2.9-2.1,6.1-2.1,7.3c0,1.3,0.2,5.6,3.2,8.8c2.9,3,6.6,3.2,8,3.2C297.6,343.2,299.7,341.9,301,340.9
	 M298.1,326.1c0.7,0.9,1.5,2.9,1.4,5.7c-0.1,1.8-0.5,3.6-1.8,5c-1.4,1.5-3.2,1.7-3.9,1.7c-1.5,0-2.8-0.6-3.8-1.6
	c-0.9-1-1.9-2.7-1.9-5.7c0-2.4,0.8-5.2,3.1-6.5c0.4-0.2,1.3-0.6,2.5-0.6c0.4,0,1.2,0,2.2,0.4C297.2,324.9,297.9,325.7,298.1,326.1
	 M323.7,342.5v-16.7h-4.9v10.4c0,0.4,0,0.9-0.2,1.3c-0.2,0.6-1.1,1.5-2.6,1.5c-0.7,0-1.2-0.2-1.4-0.4c-0.9-0.5-0.9-1.3-0.9-2.4
	v-10.4h-5v10c0,2.1-0.2,4.7,1.7,6.2c1.3,1,3.2,1,3.6,1c2,0,3.5-0.8,4.1-1.3c0.2-0.2,0.4-0.4,0.7-0.7v1.6H323.7z M336.9,329.3v-3
	h-3.3V321h-4.9v5.2h-2.4v3h2.4v8c0,1.5-0.1,3.2,1.2,4.4c1.1,1,2.6,1,3,1c0.3,0,0.7,0,1,0c1.1,0,2.3-0.2,2.6-0.3v-3.8
	c-0.6,0-1.2,0-1.7,0c-0.1,0-0.9,0-1.2-0.5c-0.2-0.3-0.1-0.7-0.1-1.3v-7.5H336.9z M352.4,339.9c0.3-0.4,0.8-1.4,0.8-2.8
	c0-3.1-2.3-4.4-5-5l-2.2-0.5c-0.5-0.1-1.8-0.3-2.3-0.6c-0.2-0.2-0.4-0.5-0.4-0.8c0-0.3,0.2-0.7,0.8-1c0.2-0.1,0.9-0.3,1.6-0.3
	c1.1,0,2.4,0.5,3.3,1c0.3,0.2,0.6,0.4,0.9,0.6l3-2.8c-0.4-0.3-0.9-0.6-1.4-0.9c-2.5-1.4-5-1.6-6.1-1.6c-3.7,0-5.6,1.7-6.4,3.1
	c-0.6,1.1-0.7,2.1-0.7,2.5c0,0.4,0.1,1.2,0.5,2.1c0.9,1.7,2.5,2.5,6,3c1.8,0.3,3.3,0.4,3.3,1.6c0,0.9-1,1.3-1.7,1.5
	c-0.6,0.1-1,0.2-1.2,0.2c-1.4,0-2.9-0.6-4-1.5c-0.3-0.2-0.6-0.5-0.9-0.8l-3.1,2.8c0.3,0.3,1,1,2,1.6c2.4,1.5,5.2,1.7,6.1,1.7
	C347.9,343,351,342.1,352.4,339.9 M370,341.1c1.1-1,3-3.1,3-6.9c0-2.7-1-5.4-3.1-7.1c-1.6-1.2-3.3-1.7-5.3-1.8
	c-4.2-0.3-6.5,1.5-7.7,2.8c-1.9,2.3-2,5-2,6c0,3.5,1.4,5.5,2.4,6.5c2.3,2.2,5.7,2.4,6.6,2.4C367.1,343.1,369.1,341.9,370,341.1
	 M366.2,329.9c1,0.7,1.8,2,1.8,4.5c0,2.5-1.2,4.8-3.9,4.8c-1.9,0-2.8-1-3.2-1.6c-0.3-0.5-0.9-1.7-0.9-3.4c0-2.5,1.1-3.9,2-4.4
	c0.7-0.4,1.6-0.5,1.9-0.5C365.1,329.2,365.8,329.6,366.2,329.9 M391.1,342.5v-16.7h-4.9v10.4c0,0.4,0,0.9-0.2,1.3
	c-0.2,0.6-1,1.5-2.6,1.5c-0.7,0-1.2-0.2-1.4-0.4c-0.9-0.5-0.9-1.3-0.9-2.4v-10.4h-5v10c0,2.1-0.2,4.7,1.7,6.2c1.3,1,3.2,1,3.6,1
	c2.1,0,3.5-0.8,4.1-1.3c0.2-0.2,0.4-0.4,0.7-0.7v1.6H391.1z M405.1,330v-4.4c-0.6,0.1-1.5,0.1-2.9,0.7c-1.1,0.4-1.5,0.9-2,1.2v-1.7
	h-4.8v16.7h4.9v-9.4c0-1.3,0.2-2.1,1.5-2.5c0.6-0.2,1.4-0.3,1.5-0.4L405.1,330z M421,340.2c0.4-0.5,0.8-1.1,1.1-1.6l-3.7-1.9
	c-0.2,0.6-0.3,0.7-0.5,1c-0.3,0.4-1.2,1.5-2.8,1.5c-1.1,0-1.8-0.6-2.1-0.8c-1.1-0.9-1.6-2.8-1.6-4.2c0-0.3,0.1-3.2,1.8-4.4
	c0.7-0.5,1.4-0.6,1.8-0.6c1.5,0,2.4,1,2.7,1.4c0.3,0.4,0.5,0.9,0.5,1l3.6-2.1c-0.3-0.5-0.4-0.7-0.6-1c-2.2-2.8-5.2-3.1-6.5-3.1
	c-1.5,0-5.6,0.4-7.6,4.7c-0.8,1.9-0.8,3.5-0.8,4.2c0,3.3,1.3,6.3,4.4,7.9c1.7,0.8,3.2,0.9,3.9,0.9
	C415.9,343.1,418.8,342.8,421,340.2 M424.8,323.7h4.9v-3.8h-4.9V323.7z M424.8,342.6h4.9v-16.7h-4.9V342.6z M449.1,342.5v-11.4
	c0-2.1-0.2-3.9-2.2-5c-1.2-0.6-2.6-0.7-3-0.7c-2,0-3.3,0.7-3.9,1.1c-0.4,0.3-0.6,0.6-0.8,0.7v-1.4h-5v16.7h4.9v-9c0-2,0.1-3,0.9-3.7
	c0.6-0.5,1.4-0.5,1.7-0.5c1.4,0,2,0.8,2.2,1.3c0.2,0.4,0.2,1.3,0.2,2.4v9.4H449.1z M468.4,343.2c0-0.5,0.1-0.9,0.1-1.4v-16h-4.6v1.5
	c-0.3-0.3-0.5-0.5-0.9-0.8c-0.6-0.4-1.8-1-3.5-1c-1.4,0-2.5,0.4-3,0.6c-1.7,0.8-4.1,3.1-4.1,7.6c0,6.5,4.2,8.1,6.9,8.1
	c1.5,0,2.8-0.5,3.3-0.7c0.5-0.3,0.9-0.6,1.1-0.7l0,1.8c0,0.9,0,1.8-0.7,2.4c-0.7,0.7-2,0.7-2.2,0.7c-1.3,0-2-0.4-2.4-0.9
	c-0.5-0.6-0.6-1.1-0.6-1.8h-5.1c0,0.5-0.1,2,0.8,3.4c0.1,0.2,0.3,0.5,0.7,0.8c1,0.8,3,1.8,6.1,1.8c0.5,0,3.8,0,5.9-1.4
	C468.1,345.9,468.3,344,468.4,343.2 M463.1,330.5c0.4,0.8,0.6,2.3,0.6,3.1c0,1.2-0.1,2.8-1.1,3.7c-0.3,0.3-0.9,0.6-2,0.6
	c-2.7,0-3-2.3-3.1-3.1c0-0.4-0.1-0.8-0.1-1.2c0-0.1-0.1-2.9,1.4-4c0.6-0.4,1.3-0.5,1.5-0.5C461.9,329.2,462.7,330,463.1,330.5
	 M21.2,300.6h19.7V271h13c10.7-0.2,25.1-0.6,31.9-14.5c1.8-3.7,2.7-7.9,2.7-12.2c0-5.3-1.4-11.7-4.4-16.1
	c-6.9-9.9-18.3-9.9-31.2-9.9H21.2V300.6z M53.3,232.7c5.7,0,15.5,0,15.5,11.4c0,12.1-8.9,12.3-16.2,12.3H40.9v-23.8H53.3z
	 M135.3,279.3c-2.1,4.1-5.3,10.2-14.7,10.2c-9.2,0-13.3-7.2-13.2-14.4h41.4c-0.2-6.6-0.7-17.9-8.2-26c-7.4-8-17.4-8.3-20.9-8.3
	c-22.9,0-29.8,18-29.8,32c0,19,12.1,30,29.3,30c9.3,0,16.9-3.6,21.9-8.2c3-2.8,5-5.7,7-8.7L135.3,279.3z M107.6,264.4
	c0.6-2.4,1.1-5.1,3.4-7.7c1.7-1.8,4.6-3.8,8.7-3.8c3,0,6.2,1.1,8.3,3.2c2.4,2.6,2.9,5.8,3.2,8.2H107.6z M173.9,242.5h-16.7v58.1
	h17.1v-32.7c0-7.3,2.4-8.5,10.7-10l5.7-0.9V242c-8.9,0.9-13,3.4-16.8,6.7V242.5z M193.6,290.8c3.7,3.4,12,11.2,28.1,11.2
	c13.7,0,27.4-6.7,27.4-20.3c0-13.8-13.6-16.9-25.2-19c-5.6-1-9.2-1.7-9.2-5c0-1.7,1.6-4.3,8.2-4.3c4,0,9.1,1.6,14.6,5.8l10.5-9.8
	c-4-2.8-12.2-8.7-25.9-8.7c-16.2,0-24.4,9.9-24.4,19.4c0,4.3,1.8,8.3,4.3,10.9c2.6,2.6,6.1,4,9.7,5c2.6,0.8,5.2,1.3,7.8,1.8
	c3.3,0.5,7.3,0.9,9.9,2.2c1,0.6,2.2,1.3,2.2,3.3c0,4.3-6.2,5.7-10.3,5.7c-6.4,0-12.2-3.4-16.9-8L193.6,290.8z M316.7,271.5
	c0-10.6-5.2-29.3-28.9-30.7c-22.2-1.2-33.4,12.9-33.4,30.7c0,21.4,14.9,30.8,31.2,30.8C308.2,302.3,316.7,286.2,316.7,271.5
	 M274.4,260.1c2.3-3.7,5.2-5.3,10.1-5.7c2.5-0.2,6.4-0.1,10,3.2c3.2,3.1,4.8,8.1,4.8,14.6c0,9.1-4.5,16.5-13.8,16.5
	c-9.6,0-14-8.1-14-17.3C271.6,267.4,272.3,263.4,274.4,260.1 M341,242.7h-17.2v57.9h17.1v-31.3c0-7.2,0-14.4,9-14.4
	c3.3,0,6.3,1.3,7.7,4.4c0.7,1.6,0.8,3.4,0.8,8.7v32.7h17V261c0-9-1.6-14.2-7.7-17.4c-3-1.7-6.9-2.3-10.3-2.3c-4.1,0-7.9,1-10.6,2.1
	c-3,1.4-4.1,2.8-5.8,4.6V242.7z M388,233.3h16.9v-14.6H388V233.3z M388,300.6h16.9v-58.1H388V300.6z M431.8,300.6h17.9l18.8-58
	h-17.6l-3.6,14.2c-3.4,13.7-3.8,15.1-6.1,28c-1.9-11.1-3.1-16.4-10.2-42.2h-18L431.8,300.6z"/>
</svg>
